<?xml version="1.0" encoding="UTF-8"?>
<svg id="katman_1" data-name="katman 1" xmlns="http://www.w3.org/2000/svg" viewBox="0 0 344.09 167.99">
  <defs>
    <style>
      .cls-1 {
        fill: #ce0e2d;
      }

      .cls-2 {
        fill: #fff;
      }
    </style>
  </defs>
  <g>
    <ellipse class="cls-2" cx="172.04" cy="71.65" rx="172.04" ry="71.65"/>
    <g>
      <g>
        <path class="cls-1" d="M197.73,63.73c-7.12,0-11.89,5.21-11.89,12.67s4.77,12.58,11.89,12.58,11.72-5.29,11.72-12.58-4.95-12.67-11.72-12.67Z"/>
        <path class="cls-1" d="M129.14,63.73c-6.86,0-11.81,5.38-11.81,12.67s4.95,12.58,11.81,12.58,11.8-5.12,11.8-12.58-4.77-12.67-11.8-12.67Z"/>
        <path class="cls-1" d="M298.27,28.28v25.22c4.89.03,9.79-1.09,14.27-3.37,1.71,3.35,3.42,6.71,5.13,10.06-6.09,3.1-12.75,4.63-19.4,4.6v15.79c0,4.86,2.52,7.47,7.03,7.47h4.86v11.2h-7.55c-11.37,0-17.19-6.77-17.19-17.1v-17.71h-7.81v-10.94h3.91c3.12,0,4.69-1.65,4.69-4.95v-25.71c-29.48-11.96-69.75-19.33-114.16-19.33C81.67,3.5,8.4,34.01,8.4,71.65c0,12.21,7.72,23.68,21.24,33.59v-39.5c0-9.99-3.23-12.24-3.23-12.24h5.65s9.72,0,9.72,0v4.34c2.86-3.21,7.47-5.47,13.19-5.47,6.94,0,11.37,2.43,13.89,6.68,2.69-3.91,7.72-6.68,15.02-6.68,11.46,0,17.45,8.25,17.45,18.4v28.38h-12.85v-25.95c0-5.12-2.69-9.37-8.07-9.37-5.73,0-8.42,4.34-8.51,8.16v27.17h-12.85v-25.95c0-5.12-2.78-9.37-8.16-9.37s-8.33,4.34-8.42,8.16v41.3c29.93,16.13,76.82,26.52,129.55,26.52,90.37,0,163.64-30.51,163.64-68.15,0-16.48-14.04-31.59-37.41-43.37ZM153.27,91.1c-3.23-.37-8.53,0-14.01,4.5-3.19,2.61-5.67,3.85-7.83,4.38-1.3.25-2.67.39-4.11.39-13.19,0-22.74-10.33-22.74-23.96s9.55-23.18,22.74-23.18c5.99,0,10.76,2.08,14.06,5.82v-5.55h11.89v37.6ZM169.81,99c-3.32-3.45-7.77-6-12.85-7.23V30.14h12.85v68.86ZM199.46,100.36c-.66,0-1.31-.04-1.95-.09-.1,0-.2-.01-.3-.02-.39-.04-.77-.11-1.16-.17-2.35-.44-4.92-1.58-8.47-4.49-5.52-4.52-10.85-4.87-14.08-4.49V30.14h12.85v27.34c3.38-3.21,7.99-5.03,13.45-5.03,13.19,0,22.39,10.24,22.39,23.96s-9.55,23.96-22.74,23.96ZM273.86,91.1c-3.23-.37-8.53,0-14.01,4.5-3.19,2.61-5.67,3.85-7.83,4.38-1.3.25-2.67.39-4.11.39-13.19,0-22.74-10.33-22.74-23.96s9.55-23.18,22.74-23.18c5.99,0,10.76,2.08,14.06,5.82v-5.55h11.89v37.6Z"/>
        <path class="cls-1" d="M249.73,63.73c-6.86,0-11.81,5.38-11.81,12.67s4.95,12.58,11.81,12.58,11.8-5.12,11.8-12.58-4.77-12.67-11.8-12.67Z"/>
      </g>
      <g>
        <path class="cls-2" d="M133.49,112.47c1.23,2.65,1.85,5.08,1.85,7.27,0,1-.07,1.94-.22,2.81h-14.95c-1.25,0-2.22-.31-2.89-.92-.68-.61-1.02-1.5-1.02-2.65,0-1.07.25-2.12.75-3.14.5-1.03,1.16-1.94,1.98-2.74l.93,1.02c-.37.44-.72,1-1.05,1.66-.32.64-.49,1.25-.53,1.81-.03.59.13,1.08.48,1.47.34.41.96.61,1.88.61h12.79c-.13-.5-.27-.91-.4-1.23-.25-.59-.41-.95-.48-1.07l-.58-1.1c-.27-.44-.49-.84-.65-1.2l2.11-2.6ZM123.65,107.96l1.75,1.89-1.75,1.88-1.78-1.88,1.78-1.89ZM129.71,109.85l-1.79,1.88-1.78-1.88,1.78-1.89,1.79,1.89Z"/>
        <path class="cls-2" d="M139.62,119.66h2.92v2.88h-5.51v-15.4l2.59-1.71v14.22Z"/>
        <path class="cls-2" d="M151.01,119.66v2.88h-9.7v-2.88h6.11c-.16-.5-.29-.9-.4-1.2-.2-.5-.36-.88-.48-1.12l-.58-1.1c-.4-.75-.62-1.15-.65-1.2l2.11-2.6c1.2,2.53,1.82,4.94,1.85,7.22h1.74ZM146.68,124.79l1.79,1.89-1.79,1.9-1.75-1.9,1.75-1.89Z"/>
        <path class="cls-2" d="M156.2,122.55h-6.28v-2.88h3.69v-12.54l2.59-1.68v17.1Z"/>
        <path class="cls-2" d="M160.96,119.66h2.92v2.88h-5.51v-15.4l2.59-1.71v14.22Z"/>
        <path class="cls-2" d="M170.15,113.44c.49,0,.94.12,1.36.37.38.24.75.57,1.1.99.3.37.58.84.83,1.4.23.53.43,1.06.6,1.59.16.61.28,1.13.34,1.55.07.44.11.9.11,1.37,0,1.07-.23,2.04-.69,2.91-.2.43-.43.81-.7,1.15-.67-.84-1.41-1.41-2.21-1.74-.81-.32-1.74-.48-2.79-.48h-5.47v-2.88h3.86c.07-.7.2-1.42.38-2.17.19-.73.44-1.4.76-2.01.28-.58.64-1.08,1.08-1.49.43-.37.91-.56,1.42-.56ZM172.64,121.02c.03-.8-.02-1.47-.17-2-.19-.57-.39-1.03-.6-1.37-.25-.36-.52-.62-.78-.8-.27-.17-.53-.23-.77-.2-.41.06-.77.31-1.07.76-.31.44-.64,1.19-.99,2.24h.27c1.71,0,3.08.45,4.12,1.36Z"/>
        <path class="cls-2" d="M189.87,119.66v2.88h-4.7c-.07-.57-.16-1.18-.29-1.81l-1.01,2.02c-.16-.1-.38-.2-.69-.29-.38-.07-.65-.11-.8-.13-.37-.03-.65-.05-.86-.05h-4.19c-.05-.47,0-1.31.15-2.52.09-.53.22-1.05.4-1.55.22-.6.48-1.16.78-1.68.25-.48.59-1.02,1.03-1.63.37-.51.78-.98,1.23-1.41.42-.41.84-.73,1.28-.97.44-.25.86-.38,1.26-.38.45,0,.85.25,1.2.76.34.46.65,1.09.93,1.89.27.75.5,1.57.7,2.45.3,1.56.46,2.36.48,2.41h3.09ZM180.37,106.86l1.75,1.89-1.75,1.88-1.78-1.88,1.78-1.89ZM181.53,119.29c1.12,0,1.94.1,2.47.3.29.07.53.17.72.29-.15-.66-.28-1.2-.41-1.63-.28-.82-.44-1.29-.49-1.41-.17-.39-.37-.73-.59-1.02-.23-.25-.45-.38-.67-.38-.27,0-.54.08-.8.25-.32.19-.62.44-.91.74-.32.34-.61.74-.88,1.2-.27.46-.52,1.01-.75,1.66h2.31ZM186.43,108.76l-1.79,1.88-1.78-1.88,1.78-1.89,1.79,1.89Z"/>
        <path class="cls-2" d="M192.66,112.53c1.69.17,3.14.57,4.35,1.17,1.17.61,2.11,1.35,2.83,2.22.7.83,1.22,1.84,1.56,3.03.32,1.12.48,2.32.48,3.6h-13.52v-2.88h10.14c-.4-1.29-1.08-2.27-2.05-2.94-.97-.67-2.33-1.11-4.09-1.31-.72-.07-1.36-.1-1.91-.1v-2.75c0-.44.06-.83.17-1.15.11-.32.25-.61.43-.86.16-.21.36-.42.63-.64.2-.16.44-.33.71-.54l5.7-3.78c.7-.47,1.26-.63,1.68-.48.42.15.63.53.63,1.14v2.32c-.32-.59-.96-.57-1.94.08l-5.8,3.88Z"/>
        <path class="cls-2" d="M210.58,122.55h-2.29c-.05.61-.15,1.25-.29,1.92-.14.61-.36,1.29-.65,2.04-.27.64-.64,1.37-1.12,2.17-.45.75-1,1.52-1.66,2.32l-2.78-2.51c.8-.56,1.46-1.13,1.96-1.71.55-.64,1-1.28,1.35-1.9.32-.6.61-1.29.86-2.06.18-.6.35-1.32.5-2.15-.08-.47-.2-.97-.36-1.5-.13-.39-.3-.83-.5-1.33-.07-.18-.27-.62-.63-1.32-.18-.34-.45-.79-.8-1.36l2-2.83c1.21,2.51,1.92,4.95,2.13,7.35h2.27v2.88Z"/>
        <path class="cls-2" d="M220.29,119.66c-.32-1.02-.96-2.41-1.94-4.18l1.86-2.58c1.12,2.33,1.72,4.58,1.8,6.76h3.45c-.11-.43-.24-.83-.38-1.2-.2-.5-.36-.87-.48-1.1l-.58-1.1c-.23-.37-.45-.77-.67-1.2l1.89-2.6c1.22,2.58,1.83,5.01,1.83,7.27,0,.9-.07,1.84-.2,2.81h-18.19v-2.88h5.58c-.09-.29-.18-.55-.26-.78-.48-1.28-.83-2.16-1.05-2.64l1.94-2.17c.03.09.43,1.45,1.18,4.08.11.44.23.94.33,1.5h3.89ZM217.56,107.53l1.78,1.89-1.78,1.9-1.78-1.9,1.78-1.89ZM219.69,104.32l1.75,1.88-1.75,1.89-1.78-1.89,1.78-1.88ZM223.62,109.42l-1.79,1.9-1.78-1.9,1.78-1.89,1.79,1.89Z"/>
      </g>
    </g>
  </g>
  <g>
    <g>
      <path class="cls-2" d="M22.22,158.5h-12.79v-31.1h13c2.46,0,4.63.46,6.44,1.36,1.95.98,3.45,2.37,4.45,4.14.96,1.7,1.45,3.63,1.45,5.74,0,1.99-.47,3.85-1.4,5.52-.97,1.75-2.43,3.15-4.35,4.18-1.83.98-4.05,1.48-6.59,1.48h-.21v8.69ZM22.41,138.19h0Z"/>
      <path class="cls-2" d="M41.67,158.78c-2.22,0-4.28-.59-6.12-1.76-1.82-1.15-3.27-2.79-4.29-4.86-.98-1.98-1.48-4.25-1.48-6.75s.5-4.78,1.48-6.75h0c1.03-2.06,2.48-3.69,4.31-4.83,1.84-1.15,3.9-1.73,6.14-1.73.91,0,1.78.09,2.6.28h12.68v26.13h-12.71c-.82.18-1.69.28-2.6.28ZM43.42,144.12c-.24,0-.35.04-.51.21-.22.22-.25.76-.25,1.06,0,.38.05.89.28,1.13.18.19.27.22.48.22.23,0,.33-.04.49-.21.22-.23.27-.72.27-1.1s-.05-.87-.26-1.1h0c-.18-.18-.28-.22-.5-.22Z"/>
      <path class="cls-2" d="M66.29,158.78c-2.47,0-4.72-.55-6.68-1.64-2.04-1.12-3.64-2.74-4.77-4.81-1.09-2-1.65-4.32-1.65-6.89s.55-4.89,1.65-6.89h0c1.13-2.07,2.74-3.69,4.77-4.81,1.97-1.09,4.22-1.64,6.68-1.64,3.19,0,5.94.88,8.17,2.63,2.26,1.77,3.76,4.23,4.44,7.32l.57,2.6h.37l-.19.82.17.76h-.34l-.59,2.62c-.68,3.03-2.17,5.48-4.44,7.26-2.25,1.77-5,2.67-8.17,2.67ZM65.94,147.08h0s0,0,0,0ZM66.17,144.39c-.05.23-.09.57-.09,1.04s.04.81.09,1.04l.38-1.04-.37-1.04Z"/>
      <polygon class="cls-2" points="105.14 158.5 88.67 158.5 88.01 157.6 88.01 158.5 75.22 158.5 75.22 126.09 88.01 126.09 88.01 133.24 88.66 132.37 105 132.37 94.16 145.45 105.14 158.5"/>
      <path class="cls-2" d="M107.25,158.78c-2.22,0-4.28-.59-6.12-1.76-1.82-1.15-3.27-2.79-4.29-4.86-.98-1.98-1.48-4.25-1.48-6.75s.5-4.78,1.48-6.75h0c1.03-2.06,2.48-3.69,4.31-4.83,1.84-1.15,3.9-1.73,6.14-1.73.91,0,1.78.09,2.6.28h12.68v26.13h-12.71c-.82.18-1.69.28-2.6.28ZM109.01,144.12c-.24,0-.35.04-.51.21-.22.22-.25.76-.25,1.06,0,.38.05.89.28,1.13.18.19.27.22.48.22.23,0,.33-.04.49-.21.22-.23.27-.72.27-1.1s-.05-.87-.27-1.1h0c-.17-.17-.26-.21-.49-.21Z"/>
      <path class="cls-2" d="M132.91,167.99c-3.61,0-6.64-.91-9.02-2.72-2.51-1.91-4.02-4.62-4.38-7.83l-.42-3.82h1.99c-.3-.46-.58-.94-.84-1.45-.98-1.98-1.48-4.25-1.48-6.75s.5-4.78,1.48-6.75c1.03-2.06,2.48-3.69,4.31-4.83,1.84-1.15,3.9-1.73,6.14-1.73.91,0,1.77.09,2.6.28h12.68v22.65c0,2.29-.47,4.42-1.4,6.32-1,2.05-2.53,3.69-4.55,4.88-1.97,1.17-4.37,1.76-7.12,1.76ZM132.42,144.12c-.24,0-.35.04-.51.22-.21.22-.25.76-.25,1.06,0,.38.05.89.28,1.13.18.19.27.22.48.22.23,0,.33-.04.49-.21.22-.23.27-.72.27-1.1s-.05-.87-.27-1.1c-.17-.17-.26-.21-.49-.21Z"/>
      <path class="cls-2" d="M156.15,158.5h-12.79v-25.2c-.36-.82-.55-1.71-.55-2.66,0-1.88.72-3.55,2.08-4.82,1.29-1.2,2.98-1.84,4.88-1.84s3.55.63,4.85,1.83c1.36,1.27,2.08,2.93,2.08,4.82,0,.95-.19,1.85-.55,2.67v25.19Z"/>
      <path class="cls-2" d="M179.56,158.5h-12.75v-13.89c0-.32-.04-.52-.07-.61-.08-.01-.28,0-.36,0-.02.08-.06.28-.06.61v13.89h-12.79v-26.13l12.79.03c.76-.15,1.56-.23,2.38-.23,3.2,0,5.94,1.14,7.93,3.3h0c1.94,2.11,2.93,4.92,2.93,8.35v14.69Z"/>
      <path class="cls-2" d="M189.74,167.99c-3.61,0-6.64-.91-9.02-2.72-2.51-1.91-4.02-4.62-4.38-7.83l-.42-3.82h1.99c-.3-.46-.58-.94-.84-1.45-.98-1.97-1.48-4.25-1.48-6.75s.5-4.78,1.49-6.75c1.03-2.06,2.48-3.68,4.31-4.83,1.84-1.15,3.9-1.73,6.14-1.73.91,0,1.77.09,2.6.28h12.68v22.65c0,2.29-.47,4.42-1.4,6.32-1,2.05-2.53,3.69-4.55,4.89-1.97,1.17-4.36,1.76-7.12,1.76ZM189.25,144.12c-.24,0-.35.04-.51.21-.22.22-.25.76-.25,1.06,0,.38.05.89.28,1.13.18.19.27.22.48.22.23,0,.33-.04.49-.21.22-.23.27-.72.27-1.1s-.05-.87-.26-1.1h0c-.17-.17-.26-.22-.49-.22Z"/>
      <path class="cls-2" d="M220.87,158.5h-12.79v-14.34h-2.14v-11.79h2.44c.45-2.04,1.41-3.73,2.86-5.05,2.01-1.82,4.79-2.74,8.28-2.74.57,0,1,.02,1.34.06l3.07.34v7.4h.1v11.79h-3.17v14.34Z"/>
      <path class="cls-2" d="M230.63,158.78c-2.22,0-4.28-.59-6.12-1.76-1.82-1.15-3.27-2.79-4.29-4.86-.98-1.98-1.48-4.25-1.48-6.75s.5-4.78,1.48-6.75h0c1.03-2.06,2.48-3.69,4.31-4.83,1.84-1.15,3.9-1.73,6.14-1.73.91,0,1.77.09,2.6.28h12.68v26.13h-12.71c-.82.18-1.69.28-2.6.28ZM232.39,144.12c-.24,0-.34.04-.52.22-.21.22-.24.76-.24,1.06,0,.38.05.89.28,1.13.18.19.27.22.48.22s.32-.03.5-.22c.22-.23.26-.72.26-1.1s-.05-.87-.27-1.1c-.18-.18-.28-.22-.5-.22Z"/>
      <path class="cls-2" d="M255.25,158.78c-2.47,0-4.71-.55-6.68-1.64-2.04-1.12-3.64-2.74-4.78-4.82-1.09-2-1.65-4.31-1.65-6.89s.55-4.9,1.65-6.89c1.13-2.07,2.74-3.69,4.77-4.81,1.97-1.09,4.22-1.64,6.68-1.64,3.19,0,5.94.88,8.17,2.63,2.26,1.76,3.75,4.23,4.44,7.32l.57,2.61h.37l-.19.82.17.76h-.34l-.59,2.62c-.68,3.04-2.17,5.48-4.44,7.26-2.25,1.77-4.99,2.67-8.17,2.67ZM255.14,144.4c-.05.23-.09.57-.09,1.04s.04.81.09,1.04l.38-1.04-.37-1.04Z"/>
      <path class="cls-2" d="M281.8,158.5h-6.45c-2.99,0-5.43-.81-7.27-2.42-1.97-1.72-2.97-4.32-2.97-7.71v-4.21h-2.35v-11.79h2.35v-4.69h12.79v4.69h3.86v11.79h-3.86v2.45h3.9v11.89Z"/>
      <path class="cls-2" d="M290.39,158.78c-2.45,0-4.71-.54-6.71-1.61-2.07-1.11-3.73-2.71-4.91-4.77-1.16-2.02-1.75-4.36-1.75-6.96s.6-4.92,1.78-6.95c1.2-2.06,2.86-3.67,4.95-4.78,2.02-1.07,4.28-1.61,6.72-1.61s4.7.54,6.72,1.61c2.09,1.11,3.75,2.72,4.95,4.78,1.18,2.03,1.78,4.37,1.78,6.95s-.61,4.94-1.8,6.97c-1.21,2.06-2.89,3.67-4.99,4.77-2.02,1.06-4.28,1.6-6.72,1.6ZM290.46,144.09c-.22,0-.25.03-.34.13-.05.06-.21.41-.21,1.22s.15,1.15.23,1.24c.09.1.09.1.25.1s.23-.01.39-.18h0c.09-.09.23-.44.23-1.17s-.15-1.11-.23-1.21c-.12-.13-.16-.14-.32-.14Z"/>
      <path class="cls-2" d="M312.94,158.5h-12.79v-26.13h12.79v.11c.83-.21,1.69-.32,2.59-.32h3.45v13.13h-5.07c-.45,0-.74.04-.91.09-.03.15-.05.39-.05.74v12.38Z"/>
      <polygon class="cls-2" points="328.22 167.64 314.26 167.64 320.25 154.36 310.99 132.37 325.17 132.37 327.2 137.88 329.22 132.37 343.22 132.37 328.22 167.64"/>
    </g>
    <g>
      <path class="cls-1" d="M30.36,142.49c-.64,1.16-1.63,2.1-2.97,2.81-1.33.71-2.99,1.07-4.97,1.07h-3.66v8.69h-5.9v-24.21h9.55c1.93,0,3.56.33,4.9,1,1.33.67,2.33,1.59,3,2.76.67,1.17,1,2.52,1,4.03,0,1.4-.32,2.68-.97,3.85ZM24.49,140.89c.55-.53.83-1.28.83-2.24s-.28-1.71-.83-2.24c-.55-.53-1.39-.79-2.52-.79h-3.21v6.07h3.21c1.13,0,1.97-.26,2.52-.79Z"/>
      <path class="cls-1" d="M34.34,140.2c.75-1.49,1.76-2.64,3.05-3.45,1.29-.8,2.72-1.21,4.31-1.21,1.36,0,2.55.28,3.57.83,1.02.55,1.81,1.28,2.36,2.17v-2.72h5.9v19.24h-5.9v-2.72c-.57.9-1.37,1.62-2.4,2.17-1.02.55-2.21.83-3.57.83-1.56,0-2.99-.41-4.28-1.22-1.29-.82-2.31-1.98-3.05-3.48s-1.12-3.25-1.12-5.22.37-3.71,1.12-5.21ZM46.41,141.95c-.82-.85-1.81-1.28-2.98-1.28s-2.17.42-2.98,1.26c-.82.84-1.22,1.99-1.22,3.47s.41,2.64,1.22,3.5c.82.86,1.81,1.29,2.98,1.29s2.17-.43,2.98-1.28c.82-.85,1.22-2.01,1.22-3.48s-.41-2.63-1.22-3.48Z"/>
      <path class="cls-1" d="M57.86,140.2c.82-1.49,1.95-2.64,3.41-3.45,1.46-.8,3.13-1.21,5.02-1.21,2.41,0,4.43.63,6.05,1.9,1.62,1.26,2.68,3.05,3.19,5.35h-6.28c-.53-1.47-1.55-2.21-3.07-2.21-1.08,0-1.94.42-2.59,1.26-.64.84-.97,2.04-.97,3.6s.32,2.76.97,3.6c.64.84,1.51,1.26,2.59,1.26,1.52,0,2.54-.74,3.07-2.21h6.28c-.51,2.25-1.57,4.02-3.21,5.31-1.63,1.29-3.64,1.93-6.03,1.93-1.89,0-3.56-.4-5.02-1.21-1.46-.8-2.6-1.95-3.41-3.45-.82-1.49-1.22-3.24-1.22-5.24s.41-3.75,1.22-5.24Z"/>
      <path class="cls-1" d="M90.42,155.06l-5.86-8.07v8.07h-5.9v-25.52h5.9v14.1l5.83-7.83h7.28l-8,9.66,8.07,9.59h-7.31Z"/>
      <path class="cls-1" d="M99.92,140.2c.75-1.49,1.76-2.64,3.05-3.45,1.29-.8,2.72-1.21,4.31-1.21,1.36,0,2.55.28,3.57.83,1.02.55,1.81,1.28,2.36,2.17v-2.72h5.9v19.24h-5.9v-2.72c-.57.9-1.37,1.62-2.4,2.17-1.02.55-2.21.83-3.57.83-1.56,0-2.99-.41-4.28-1.22-1.29-.82-2.31-1.98-3.05-3.48-.75-1.51-1.12-3.25-1.12-5.22s.37-3.71,1.12-5.21ZM111.99,141.95c-.82-.85-1.81-1.28-2.98-1.28s-2.17.42-2.98,1.26c-.82.84-1.22,1.99-1.22,3.47s.41,2.64,1.22,3.5c.82.86,1.81,1.29,2.98,1.29s2.17-.43,2.98-1.28c.82-.85,1.22-2.01,1.22-3.48s-.41-2.63-1.22-3.48Z"/>
      <path class="cls-1" d="M134.27,136.37c1.02.55,1.81,1.28,2.36,2.17v-2.72h5.9v19.21c0,1.77-.35,3.37-1.05,4.81-.7,1.44-1.77,2.58-3.21,3.43-1.44.85-3.22,1.28-5.36,1.28-2.85,0-5.16-.67-6.93-2.02-1.77-1.35-2.78-3.17-3.03-5.47h5.83c.18.74.62,1.32,1.31,1.74s1.54.64,2.55.64c1.22,0,2.19-.35,2.91-1.05.72-.7,1.09-1.82,1.09-3.36v-2.72c-.57.9-1.37,1.63-2.38,2.19-1.01.56-2.2.85-3.55.85-1.59,0-3.02-.41-4.31-1.22-1.29-.82-2.31-1.98-3.05-3.48s-1.12-3.25-1.12-5.22.37-3.71,1.12-5.21c.75-1.49,1.76-2.64,3.05-3.45,1.29-.8,2.72-1.21,4.31-1.21,1.36,0,2.55.28,3.57.83ZM135.41,141.95c-.82-.85-1.81-1.28-2.98-1.28s-2.17.42-2.98,1.26c-.82.84-1.22,1.99-1.22,3.47s.41,2.64,1.22,3.5c.82.86,1.81,1.29,2.98,1.29s2.17-.43,2.98-1.28c.82-.85,1.22-2.01,1.22-3.48s-.41-2.63-1.22-3.48Z"/>
      <path class="cls-1" d="M147.23,132.9c-.65-.61-.98-1.36-.98-2.26s.33-1.68.98-2.29c.66-.61,1.5-.91,2.53-.91s1.84.3,2.5.91c.65.61.98,1.37.98,2.29s-.33,1.65-.98,2.26c-.66.61-1.49.91-2.5.91s-1.88-.3-2.53-.91ZM152.7,135.82v19.24h-5.9v-19.24h5.9Z"/>
      <path class="cls-1" d="M174.1,137.8c1.34,1.46,2.02,3.47,2.02,6.02v11.24h-5.86v-10.45c0-1.29-.33-2.29-1-3-.67-.71-1.56-1.07-2.69-1.07s-2.02.36-2.69,1.07c-.67.71-1,1.71-1,3v10.45h-5.9v-19.24h5.9v2.55c.6-.85,1.4-1.52,2.41-2.02s2.15-.74,3.41-.74c2.25,0,4.05.73,5.4,2.19Z"/>
      <path class="cls-1" d="M191.1,136.37c1.02.55,1.81,1.28,2.36,2.17v-2.72h5.9v19.21c0,1.77-.35,3.37-1.05,4.81-.7,1.44-1.77,2.58-3.21,3.43-1.44.85-3.22,1.28-5.36,1.28-2.85,0-5.16-.67-6.93-2.02-1.77-1.35-2.78-3.17-3.03-5.47h5.83c.18.74.62,1.32,1.31,1.74s1.54.64,2.55.64c1.22,0,2.19-.35,2.91-1.05.72-.7,1.09-1.82,1.09-3.36v-2.72c-.58.9-1.37,1.63-2.38,2.19-1.01.56-2.2.85-3.55.85-1.59,0-3.02-.41-4.31-1.22-1.29-.82-2.31-1.98-3.05-3.48-.75-1.51-1.12-3.25-1.12-5.22s.37-3.71,1.12-5.21c.75-1.49,1.76-2.64,3.05-3.45,1.29-.8,2.72-1.21,4.31-1.21,1.36,0,2.55.28,3.57.83ZM192.24,141.95c-.82-.85-1.81-1.28-2.98-1.28s-2.17.42-2.98,1.26c-.82.84-1.22,1.99-1.22,3.47s.41,2.64,1.22,3.5,1.81,1.29,2.98,1.29,2.17-.43,2.98-1.28c.82-.85,1.22-2.01,1.22-3.48s-.41-2.63-1.22-3.48Z"/>
      <path class="cls-1" d="M220.6,140.71h-3.17v14.34h-5.9v-14.34h-2.14v-4.9h2.14v-.55c0-2.37.68-4.17,2.03-5.4,1.36-1.23,3.35-1.85,5.97-1.85.44,0,.76.01.97.03v5c-1.13-.07-1.92.09-2.38.48-.46.39-.69,1.09-.69,2.1v.17h3.17v4.9Z"/>
      <path class="cls-1" d="M223.3,140.2c.75-1.49,1.76-2.64,3.05-3.45,1.29-.8,2.72-1.21,4.31-1.21,1.36,0,2.55.28,3.57.83,1.02.55,1.81,1.28,2.36,2.17v-2.72h5.9v19.24h-5.9v-2.72c-.58.9-1.37,1.62-2.4,2.17-1.02.55-2.21.83-3.57.83-1.56,0-2.99-.41-4.28-1.22-1.29-.82-2.31-1.98-3.05-3.48-.75-1.51-1.12-3.25-1.12-5.22s.37-3.71,1.12-5.21ZM235.37,141.95c-.82-.85-1.81-1.28-2.98-1.28s-2.17.42-2.98,1.26c-.82.84-1.22,1.99-1.22,3.47s.41,2.64,1.22,3.5,1.81,1.29,2.98,1.29,2.17-.43,2.98-1.28c.82-.85,1.22-2.01,1.22-3.48s-.41-2.63-1.22-3.48Z"/>
      <path class="cls-1" d="M246.82,140.2c.82-1.49,1.95-2.64,3.41-3.45,1.46-.8,3.13-1.21,5.02-1.21,2.41,0,4.43.63,6.05,1.9,1.62,1.26,2.68,3.05,3.19,5.35h-6.28c-.53-1.47-1.55-2.21-3.07-2.21-1.08,0-1.94.42-2.59,1.26-.64.84-.97,2.04-.97,3.6s.32,2.76.97,3.6c.64.84,1.51,1.26,2.59,1.26,1.52,0,2.54-.74,3.07-2.21h6.28c-.51,2.25-1.57,4.02-3.21,5.31-1.63,1.29-3.64,1.93-6.03,1.93-1.89,0-3.56-.4-5.02-1.21-1.46-.8-2.6-1.95-3.41-3.45-.82-1.49-1.22-3.24-1.22-5.24s.41-3.75,1.22-5.24Z"/>
      <path class="cls-1" d="M278.36,150.06v5h-3c-2.14,0-3.81-.52-5-1.57-1.2-1.05-1.79-2.75-1.79-5.12v-7.66h-2.35v-4.9h2.35v-4.69h5.9v4.69h3.86v4.9h-3.86v7.72c0,.57.14.99.41,1.24.28.25.74.38,1.38.38h2.1Z"/>
      <path class="cls-1" d="M285.3,154.13c-1.51-.8-2.69-1.95-3.55-3.45-.86-1.49-1.29-3.24-1.29-5.24s.44-3.72,1.31-5.22c.87-1.51,2.07-2.66,3.59-3.47,1.52-.8,3.22-1.21,5.1-1.21s3.59.4,5.1,1.21c1.52.81,2.71,1.96,3.59,3.47s1.31,3.25,1.31,5.22-.44,3.72-1.33,5.22c-.89,1.51-2.09,2.66-3.62,3.47-1.53.81-3.24,1.21-5.12,1.21s-3.58-.4-5.09-1.21ZM293.27,148.99c.79-.83,1.19-2.01,1.19-3.55s-.39-2.72-1.15-3.55c-.77-.83-1.72-1.24-2.85-1.24s-2.1.41-2.86,1.22c-.76.82-1.14,2.01-1.14,3.57s.37,2.72,1.12,3.55c.75.83,1.68,1.24,2.81,1.24s2.09-.41,2.88-1.24Z"/>
      <path class="cls-1" d="M312.08,136.52c1.03-.61,2.18-.91,3.45-.91v6.24h-1.62c-1.47,0-2.57.32-3.31.95-.74.63-1.1,1.74-1.1,3.33v8.93h-5.9v-19.24h5.9v3.21c.69-1.06,1.55-1.89,2.59-2.5Z"/>
      <path class="cls-1" d="M338.01,135.82l-12.07,28.38h-6.34l4.41-9.79-7.83-18.59h6.59l4.45,12.03,4.41-12.03h6.38Z"/>
    </g>
  </g>
</svg>