<?xml version="1.0" encoding="UTF-8"?>
<svg id="Layer_1" xmlns="http://www.w3.org/2000/svg" version="1.1" viewBox="0 0 526.49 278.42">
  <!-- Generator: Adobe Illustrator 29.8.2, SVG Export Plug-In . SVG Version: 2.1.1 Build 3)  -->
  <defs>
    <style>
      .st0 {
        fill: #ce0e2d;
      }

      .st1 {
        fill: #fff;
      }
    </style>
  </defs>
  <g>
    <ellipse class="st1" cx="263.25" cy="112.04" rx="260.42" ry="108.45"/>
    <g>
      <g>
        <path class="st0" d="M302.12,100.06c-10.77,0-18,7.88-18,19.18s7.23,19.05,18,19.05,17.74-8.01,17.74-19.05-7.49-19.18-17.74-19.18Z"/>
        <path class="st0" d="M198.31,100.06c-10.38,0-17.87,8.15-17.87,19.18s7.49,19.05,17.87,19.05,17.87-7.75,17.87-19.05-7.23-19.18-17.87-19.18Z"/>
        <path class="st0" d="M454.32,46.39v38.17c7.41.05,14.82-1.65,21.61-5.1,2.59,5.08,5.17,10.15,7.76,15.23-9.22,4.7-19.3,7.01-29.37,6.97v23.9c0,7.36,3.81,11.3,10.64,11.3h7.36v16.95h-11.43c-17.21,0-26.02-10.25-26.02-25.88v-26.81h-11.83v-16.55h5.91c4.73,0,7.09-2.5,7.09-7.49v-38.92c-44.63-18.1-105.59-29.26-172.81-29.26C126.44,8.88,15.54,55.06,15.54,112.04c0,18.49,11.69,35.84,32.15,50.85v-59.8c0-15.12-4.88-18.53-4.88-18.53h8.56s14.72,0,14.72,0v6.57c4.34-4.86,11.3-8.28,19.97-8.28,10.51,0,17.21,3.68,21.02,10.12,4.07-5.91,11.69-10.12,22.73-10.12,17.34,0,26.41,12.48,26.41,27.85v42.97h-19.45v-39.29c0-7.75-4.07-14.19-12.22-14.19-8.67,0-12.74,6.57-12.88,12.35v41.13h-19.45v-39.29c0-7.75-4.2-14.19-12.35-14.19s-12.61,6.57-12.74,12.35v62.51c45.3,24.41,116.29,40.14,196.11,40.14,136.8,0,247.7-46.18,247.7-103.16,0-24.94-21.25-47.81-56.63-65.65ZM234.83,141.47c-4.89-.55-12.91,0-21.21,6.81-4.83,3.95-8.58,5.82-11.85,6.63-1.97.38-4.04.59-6.23.59-19.97,0-34.42-15.64-34.42-36.26s14.45-35.08,34.42-35.08c9.07,0,16.29,3.15,21.28,8.8v-8.41h18v56.92ZM259.87,153.45c-5.02-5.22-11.76-9.09-19.45-10.95V49.21h19.45v104.24ZM304.75,155.5c-1.01,0-1.98-.06-2.95-.14-.15-.01-.31-.02-.46-.03-.6-.06-1.17-.16-1.75-.25-3.56-.67-7.44-2.39-12.82-6.8-8.36-6.85-16.43-7.37-21.31-6.8V49.21h19.45v41.39c5.12-4.86,12.09-7.62,20.37-7.62,19.97,0,33.9,15.5,33.9,36.26s-14.45,36.26-34.42,36.26ZM417.36,141.47c-4.89-.55-12.91,0-21.21,6.81-4.83,3.95-8.58,5.82-11.85,6.63-1.97.38-4.04.59-6.23.59-19.97,0-34.42-15.64-34.42-36.26s14.45-35.08,34.42-35.08c9.07,0,16.29,3.15,21.28,8.8v-8.41h18v56.92Z"/>
        <path class="st0" d="M380.84,100.06c-10.38,0-17.87,8.15-17.87,19.18s7.49,19.05,17.87,19.05,17.87-7.75,17.87-19.05-7.23-19.18-17.87-19.18Z"/>
      </g>
      <g>
        <path class="st1" d="M204.89,173.84c1.87,4.02,2.8,7.68,2.8,11,0,1.51-.11,2.93-.33,4.25h-22.63c-1.89,0-3.35-.46-4.38-1.39-1.03-.93-1.54-2.27-1.54-4.02,0-1.62.38-3.21,1.14-4.76.76-1.55,1.76-2.94,3-4.15l1.41,1.54c-.56.67-1.09,1.51-1.6,2.51-.48.97-.75,1.89-.8,2.75-.05.9.19,1.64.72,2.23.51.62,1.45.93,2.84.93h19.36c-.2-.76-.4-1.38-.61-1.86-.38-.89-.63-1.43-.72-1.62l-.87-1.66c-.41-.67-.74-1.28-.98-1.82l3.19-3.93ZM189.99,167l2.65,2.86-2.65,2.84-2.69-2.84,2.69-2.86ZM199.16,169.87l-2.71,2.84-2.69-2.84,2.69-2.86,2.71,2.86Z"/>
        <path class="st1" d="M214.16,184.72h4.42v4.36h-8.34v-23.3l3.92-2.59v21.53Z"/>
        <path class="st1" d="M231.4,184.72v4.36h-14.68v-4.36h9.25c-.24-.76-.44-1.37-.61-1.82-.31-.76-.55-1.33-.72-1.7l-.87-1.66c-.61-1.13-.93-1.74-.98-1.82l3.19-3.93c1.82,3.83,2.75,7.47,2.8,10.92h2.64ZM224.85,192.48l2.71,2.86-2.71,2.88-2.65-2.88,2.65-2.86Z"/>
        <path class="st1" d="M239.26,189.08h-9.5v-4.36h5.59v-18.98l3.92-2.55v25.89Z"/>
        <path class="st1" d="M246.46,184.72h4.42v4.36h-8.34v-23.3l3.92-2.59v21.53Z"/>
        <path class="st1" d="M260.38,175.3c.74,0,1.43.18,2.06.55.58.36,1.14.86,1.67,1.5.46.57.88,1.27,1.26,2.11.35.8.65,1.61.91,2.41.25.92.42,1.7.52,2.35.11.67.17,1.36.17,2.07,0,1.62-.35,3.09-1.04,4.4-.3.64-.65,1.22-1.06,1.74-1.02-1.26-2.13-2.14-3.35-2.63-1.22-.49-2.63-.73-4.22-.73h-8.28v-4.36h5.85c.11-1.05.3-2.15.58-3.28.28-1.11.67-2.12,1.15-3.04.42-.88.97-1.63,1.63-2.25.66-.57,1.37-.85,2.15-.85ZM264.15,186.77c.05-1.21-.04-2.22-.26-3.02-.28-.87-.59-1.56-.91-2.07-.38-.54-.78-.94-1.19-1.2-.41-.25-.8-.35-1.17-.3-.62.09-1.16.47-1.62,1.15-.46.67-.96,1.8-1.49,3.4h.41c2.59,0,4.67.68,6.24,2.05Z"/>
        <path class="st1" d="M290.22,184.72v4.36h-7.11c-.1-.87-.25-1.78-.45-2.75l-1.52,3.06c-.24-.16-.58-.3-1.04-.43-.58-.11-.98-.17-1.21-.2-.56-.05-.99-.08-1.3-.08h-6.35c-.07-.71,0-1.98.22-3.81.14-.8.34-1.59.61-2.35.33-.91.73-1.76,1.19-2.55.37-.72.89-1.55,1.56-2.47.56-.78,1.18-1.49,1.86-2.13.63-.62,1.27-1.11,1.93-1.46.67-.38,1.31-.57,1.91-.57.68,0,1.29.38,1.82,1.15.51.7.98,1.65,1.41,2.86.41,1.13.76,2.37,1.06,3.71.46,2.36.7,3.57.72,3.65h4.68ZM275.85,165.34l2.65,2.86-2.65,2.84-2.69-2.84,2.69-2.86ZM277.6,184.15c1.7,0,2.94.15,3.73.45.43.11.8.25,1.1.44-.22-1-.43-1.82-.61-2.47-.42-1.24-.67-1.95-.74-2.13-.26-.59-.56-1.11-.89-1.54-.35-.38-.69-.57-1.02-.57-.41,0-.81.13-1.21.38-.48.29-.94.66-1.37,1.13-.48.51-.93,1.12-1.34,1.82-.41.7-.79,1.53-1.13,2.51h3.49ZM285.03,168.21l-2.71,2.84-2.69-2.84,2.69-2.86,2.71,2.86Z"/>
        <path class="st1" d="M294.46,173.92c2.56.26,4.76.86,6.59,1.78,1.77.92,3.2,2.04,4.29,3.36,1.06,1.26,1.85,2.79,2.36,4.58.48,1.7.72,3.52.72,5.45h-20.46v-4.36h15.35c-.61-1.95-1.64-3.43-3.11-4.45-1.47-1.02-3.53-1.68-6.19-1.99-1.09-.1-2.05-.16-2.9-.16v-4.17c0-.67.09-1.25.26-1.74.16-.49.38-.92.65-1.3.24-.32.55-.64.95-.97.31-.24.67-.51,1.08-.81l8.63-5.73c1.06-.71,1.91-.95,2.54-.72.63.23.95.81.95,1.73v3.52c-.48-.9-1.46-.86-2.93.12l-8.78,5.87Z"/>
        <path class="st1" d="M321.58,189.08h-3.47c-.07.92-.22,1.89-.45,2.9-.21.92-.54,1.95-.98,3.08-.41.97-.97,2.07-1.69,3.28-.68,1.13-1.52,2.3-2.51,3.52l-4.21-3.79c1.21-.84,2.2-1.7,2.97-2.59.83-.97,1.51-1.94,2.04-2.88.48-.91.92-1.95,1.3-3.12.27-.91.53-1.99.76-3.26-.12-.71-.3-1.47-.54-2.27-.2-.59-.45-1.26-.76-2.01-.1-.28-.41-.94-.95-1.99-.27-.51-.67-1.2-1.21-2.05l3.03-4.29c1.83,3.79,2.91,7.5,3.23,11.12h3.43v4.36Z"/>
        <path class="st1" d="M336.28,184.72c-.48-1.54-1.46-3.65-2.93-6.32l2.82-3.91c1.7,3.53,2.61,6.94,2.73,10.23h5.22c-.17-.65-.37-1.25-.58-1.82-.3-.76-.54-1.32-.72-1.66l-.87-1.66c-.35-.57-.69-1.17-1.02-1.82l2.86-3.93c1.84,3.91,2.77,7.58,2.77,11,0,1.37-.1,2.78-.3,4.25h-27.53v-4.36h8.45c-.14-.44-.27-.83-.39-1.19-.73-1.94-1.26-3.26-1.6-3.99l2.93-3.28c.05.13.64,2.19,1.78,6.18.17.67.34,1.43.5,2.27h5.89ZM332.14,166.35l2.69,2.86-2.69,2.88-2.69-2.88,2.69-2.86ZM335.37,161.49l2.66,2.84-2.66,2.86-2.69-2.86,2.69-2.84ZM341.31,169.22l-2.71,2.88-2.69-2.88,2.69-2.86,2.71,2.86Z"/>
      </g>
    </g>
  </g>
  <g>
    <path class="st1" d="M418.03,222.87c0,.16,0,.33,0,.49-2.11-.59-4.45-.76-6.98-.49-8.58.92-15.78,6.3-18.88,13.27-1.77-6.82-7.98-10.78-16.35-10.09-2.39.19-4.67.72-6.74,1.54,0-.09,0-.19,0-.28-5.32.39-10.64.74-15.96,1.07-.09,0-.18.01-.27.02-.58.04-1.16.07-1.74.11,2.17-1.63,3.51-4.04,3.52-6.72.01-4.7-4.28-8.02-9.78-7.6-5.54.42-9.89,4.28-9.9,8.85,0,2.59,1.37,4.8,3.58,6.18-.61.03-1.23.06-1.84.09-.11,0-.22.01-.33.02-5.24.26-10.48.49-15.72.69,0,.14,0,.28,0,.42-2.12-.63-4.47-.9-7.01-.82-8.44.29-15.53,4.44-18.73,10.33,0-3.06,0-6.13.01-9.19-5.35.11-10.71.18-16.06.23,0,.28,0,.56,0,.84-2.1-.64-4.43-.96-6.95-.95-3.71.01-7.1.7-10.01,1.94.63-.59,1.26-1.18,1.88-1.77-6.72-.01-13.44-.08-20.15-.19-2.21,2.03-4.41,4.05-6.62,6.08,0-5.69-.02-11.37-.03-17.06-5.6-.15-11.19-.34-16.78-.57.01,5.83.03,11.67.04,17.5-3.35-4.01-9.33-7.49-17.42-7.87-9.04-.43-16.41,3.38-19.7,9.68-.01-3.36-.02-6.71-.03-10.07-5.35-.32-10.69-.67-16.03-1.05,0,.3,0,.6,0,.9-2.1-.86-4.43-1.39-6.94-1.59-8.74-.68-15.68,2.99-18.76,9.5-3.02-7.21-9.97-12.48-18.67-13.42-2.59-.27-5-.1-7.17.52,0-.18,0-.36,0-.53-5.32-.58-10.65-1.18-15.96-1.82,0,17.65,0,35.29,0,52.94,5.58.01,11.16.02,16.74.03,0-3.78,0-7.57-.01-11.35,1.92.68,4,1.05,6.22,1.1,8.68.17,15.76-4.42,18.84-11.25,3.11,7.13,10.22,11.86,18.9,11.98,2.51.04,4.84-.31,6.93-1.02,0,.13,0,.26,0,.39,5.34.09,10.69.17,16.03.24-.01-3.36-.02-6.72-.03-10.08,3.36,6.52,10.85,10.95,19.75,11.02,8.03.07,13.98-3.02,17.37-6.78,0,2.08,0,4.15.01,6.23,5.58.04,11.17.08,16.75.11,0-2.41,0-4.81-.01-7.22,2.33,2.43,4.65,4.84,6.97,7.25,6.45.02,12.89.04,19.34.04-.39-.42-.78-.84-1.16-1.26,2.86,1.25,6.15,1.95,9.71,1.94,2.51,0,4.84-.36,6.94-1.06,0,.12,0,.24,0,.36,4.95,0,9.91-.03,14.86-.05.01.03.02.05.04.08,3.02,6.51,10.31,10.12,20.51,10.12,12.06.02,20.33-5.54,22.03-14.51,0,1.32,0,2.64-.01,3.96,5.49-.06,10.99-.13,16.48-.21.09,0,.18,0,.27,0,.47,0,.94-.01,1.4-.02,5.02-.07,10.05-.15,15.07-.24,2.16-.04,4.32-.07,6.48-.11,3.15-.06,6.3-.12,9.45-.18,1.91-.04,3.81-.08,5.72-.11.01.03.02.06.04.09,3.01,7.22,10.29,11.31,20.5,11.33,13.56.09,22.32-8.23,22.32-21.22v-32.57c-5.32.64-10.64,1.24-15.96,1.82Z"/>
    <g>
      <path class="st0" d="M139.42,244.37c.03,9.34-7.09,16.27-16.94,16.04-4.02-.11-7.32-1.46-9.79-3.89,0,4.69,0,9.37.01,14.06-3.2-.03-6.4-.06-9.6-.09,0-15.15,0-30.29-.01-45.44,2.95.32,5.9.64,8.85.94,0,1.22,0,2.44,0,3.66,2.58-2.6,6.27-3.77,10.73-3.33,9.83,1.01,16.72,8.64,16.74,18.04ZM129.9,243.82c-.01-5.1-3.71-9.16-8.76-9.59-5.31-.45-8.86,3.02-8.85,8.46,0,5.44,3.57,9.34,8.88,9.57,5.05.22,8.74-3.34,8.73-8.44Z"/>
      <path class="st0" d="M179.51,231.45c.03,9.85.06,19.71.09,29.56-2.96-.05-5.92-.11-8.89-.17,0-1.1,0-2.2-.01-3.29-2.46,2.49-6.02,3.91-10.49,3.82-9.86-.16-17.01-7.41-17.03-16.79-.02-9.43,7.08-15.3,16.94-14.55,4.47.32,8.05,1.93,10.52,4.52,0-1.21,0-2.42-.01-3.64,2.96.19,5.92.37,8.89.54ZM170.35,245.89c-.02-4.88-3.59-8.48-8.85-8.8-5.12-.32-8.81,3.06-8.79,7.98.01,4.92,3.72,8.62,8.84,8.77,5.25.16,8.81-3.08,8.79-7.96Z"/>
      <path class="st0" d="M184.82,246.51c-.03-8.73,7.61-15.03,18-14.55,9.29.41,15.02,5.64,16.52,9.93-2.86.86-5.71,1.72-8.57,2.59-.98-3-3.71-5.15-7.74-5.3-4.8-.18-8.56,2.75-8.55,7.6.01,4.86,3.79,8.02,8.59,8.11,4.09.08,6.94-1.93,7.91-4.84,2.86,1.02,5.72,2.03,8.58,3.02-1.48,4.11-7.18,9.12-16.66,9.01-10.25-.1-18.06-6.86-18.09-15.59Z"/>
      <path class="st0" d="M245.73,261.77c-4.09-4.24-8.19-8.51-12.29-12.81,0,4.25.01,8.49.02,12.74-3.2-.02-6.4-.05-9.61-.08-.03-13.07-.06-26.13-.08-39.2,3.21.12,6.41.22,9.62.31.01,7.32.02,14.64.04,21.97,3.93-3.63,7.87-7.25,11.81-10.87,3.57.05,7.15.09,10.73.11-4.55,4.27-9.09,8.53-13.63,12.79,4.62,5.06,9.23,10.08,13.84,15.08-3.48,0-6.97-.02-10.45-.03Z"/>
      <path class="st0" d="M291.34,233.77c-.01,9.33-.02,18.65-.04,27.98-2.96.02-5.93.03-8.89.04,0-1.02,0-2.05,0-3.07-2.47,2.39-6.04,3.78-10.52,3.78-9.86.01-17.01-6.3-17.02-14.61,0-8.36,7.14-14.05,17.02-14.08,4.49-.02,8.06,1.22,10.53,3.47,0-1.13,0-2.26,0-3.39,2.97-.03,5.94-.07,8.9-.12ZM282.09,247.87c0-4.55-3.57-7.69-8.83-7.67-5.13.02-8.84,3.28-8.84,7.72,0,4.44,3.7,7.67,8.83,7.66,5.26,0,8.83-3.15,8.84-7.71Z"/>
      <path class="st0" d="M333.11,232.51c-.02,8.15-.05,16.31-.07,24.46-.03,8.84-6.92,14.93-18.79,14.93-9.54.02-14.91-3.34-17.18-8.22,2.73-.88,5.45-1.77,8.18-2.67,1.42,2.93,4.79,4.25,9.08,4.22,6.16-.04,9.81-2.95,9.82-7.35,0-.4,0-.8,0-1.19-2.47,2.43-6.05,3.87-10.59,3.92-9.86.09-16.93-5.98-16.92-13.64.01-7.65,7.17-14.06,16.98-14.38,4.55-.14,8.12,1.12,10.58,3.43,0-1.05,0-2.1,0-3.15,2.97-.11,5.93-.23,8.9-.37ZM323.59,246.84c.01-4.34-3.55-7.42-8.68-7.28-5,.14-8.71,3.48-8.72,7.65,0,4.17,3.69,7.39,8.62,7.31,5.19-.08,8.77-3.4,8.78-7.69Z"/>
      <path class="st0" d="M338.53,222.85c0-2.97,2.81-5.35,6.32-5.59,3.51-.25,6.23,1.78,6.22,4.8,0,3.08-2.74,5.43-6.25,5.62-3.51.2-6.29-1.81-6.28-4.83ZM339.93,232.2c3.2-.16,6.41-.32,9.61-.5-.03,9.8-.06,19.6-.09,29.39-3.2.06-6.4.11-9.6.16.03-9.68.06-19.37.09-29.05Z"/>
      <path class="st0" d="M389.13,240.56c-.02,6.56-.04,13.12-.05,19.68-3.18.08-6.35.16-9.53.24.02-5.89.04-11.78.05-17.67.01-3.91-2.83-5.94-6.72-5.71-3.83.23-6.82,2.79-6.89,5.87-.02,5.93-.04,11.87-.06,17.8-3.2.07-6.4.13-9.6.19.03-9.89.06-19.77.1-29.66,3.03-.18,6.06-.37,9.08-.57,0,.93,0,1.86,0,2.79,2.34-2.25,5.91-3.93,10.32-4.26,8.17-.63,13.33,3.96,13.32,11.28Z"/>
      <path class="st0" d="M430.43,225.06c0,9.59,0,19.18,0,28.77,0,10.42-6.88,17.62-18.75,17.64-9.53.05-14.91-3.73-17.16-9.17,2.73-1.04,5.45-2.1,8.18-3.17,1.42,3.3,4.79,4.76,9.07,4.67,6.16-.12,9.79-3.56,9.8-8.69,0-.46,0-.93,0-1.39-2.46,2.89-6.03,4.63-10.57,4.78-9.85.27-16.9-6.4-16.88-14.97.02-8.57,7.17-16.21,16.93-17.22,4.53-.45,8.08.81,10.54,3.35,0-1.22,0-2.44,0-3.66,2.95-.3,5.9-.62,8.85-.94ZM420.98,242.27c0-5.06-3.55-8.47-8.66-8.03-4.98.42-8.68,4.42-8.69,9.15-.01,4.73,3.68,8.29,8.6,8.07,5.18-.23,8.75-4.2,8.75-9.19Z"/>
    </g>
  </g>
</svg>